<?xml version="1.0" encoding="UTF-8" standalone="no"?><!DOCTYPE svg PUBLIC "-//W3C//DTD SVG 1.1//EN" "http://www.w3.org/Graphics/SVG/1.1/DTD/svg11.dtd"><svg width="100%" height="100%" viewBox="0 0 256 256" version="1.1" xmlns="http://www.w3.org/2000/svg" xmlns:xlink="http://www.w3.org/1999/xlink" xml:space="preserve" xmlns:serif="http://www.serif.com/" style="fill-rule:evenodd;clip-rule:evenodd;stroke-miterlimit:10;"><rect id="Artboard1" x="0" y="0" width="256" height="256" style="fill:none;"/><path d="M42.312,66.349l0,126.577c0,11.415 9.253,20.668 20.668,20.668l126.577,0c11.414,0 20.667,-9.253 20.667,-20.668l0,-126.577c0,-11.414 -9.253,-20.667 -20.667,-20.667l-126.577,-0c-11.415,-0 -20.668,9.253 -20.668,20.667Z" style="fill-rule:nonzero;stroke:#000;stroke-width:3px;"/><path d="M17.344,41.381l-0,126.577c-0,11.414 9.253,20.668 20.667,20.668l126.577,-0c11.415,-0 20.668,-9.254 20.668,-20.668l-0,-126.577c-0,-11.414 -9.253,-20.668 -20.668,-20.668l-126.577,0c-11.414,0 -20.667,9.254 -20.667,20.668Z" style="fill:none;fill-rule:nonzero;stroke:#000;stroke-width:3px;"/><path d="M67.28,91.318l0,126.577c0,11.414 9.254,20.667 20.668,20.667l126.577,0c11.414,0 20.668,-9.253 20.668,-20.667l-0,-126.577c-0,-11.415 -9.254,-20.668 -20.668,-20.668l-126.577,0c-11.414,0 -20.668,9.253 -20.668,20.668Z" style="fill:none;fill-rule:nonzero;stroke:#000;stroke-width:3px;"/><path d="M136.2,134.435l61.782,60.984c4.186,4.129 11.277,1.166 11.277,-4.714l-0,-122.146c-0,-5.885 -7.101,-8.847 -11.283,-4.706l-61.782,61.16c-2.622,2.595 -2.619,6.831 0.006,9.422Z" style="fill:#232323;fill-rule:nonzero;stroke:#000;stroke-width:3px;"/><path d="M119.661,136.209l-61.046,61.847c-5.693,5.766 -1.607,15.538 6.496,15.538l122.271,-0c8.108,-0 12.191,-9.785 6.485,-15.548l-61.223,-61.847c-3.576,-3.611 -9.412,-3.606 -12.983,0.01Z" style="fill:#0ea5e9;fill-rule:nonzero;stroke:#000;stroke-width:3px;"/><path d="M121.355,150.155l-45.097,45.688c-4.206,4.26 -1.187,11.478 4.798,11.478l90.325,0c5.992,0 9.007,-7.228 4.792,-11.485l-45.228,-45.689c-2.641,-2.667 -6.952,-2.664 -9.59,0.008" style="fill:#2db3e2;fill-rule:nonzero;"/><path d="M132.135,123.816l63.535,-64.367c5.044,-5.11 1.424,-13.768 -5.754,-13.768l-127.255,0c-7.185,0 -10.801,8.671 -5.748,13.777l63.721,64.367c3.167,3.2 8.338,3.196 11.501,-0.009Z" style="fill:#d97706;fill-rule:nonzero;stroke:#000;stroke-width:3px;"/><path d="M121.837,109.845l-45.096,-45.688c-4.206,-4.26 -1.188,-11.478 4.797,-11.478l90.326,-0c5.991,-0 9.006,7.228 4.791,11.485l-45.227,45.689c-2.642,2.667 -6.954,2.664 -9.591,-0.008" style="fill:#db9249;fill-rule:nonzero;"/><path d="M126.751,95.139c-19.054,-0 -34.499,15.445 -34.499,34.499c-0,19.053 15.445,34.5 34.499,34.5c19.053,-0 34.499,-15.447 34.499,-34.5c-0,-19.054 -15.446,-34.499 -34.499,-34.499" style="fill:#d1d5db;fill-rule:nonzero;"/><ellipse cx="126.751" cy="129.638" rx="34.499" ry="34.499" style="fill:none;stroke:#000;stroke-width:3px;"/><path d="M126.268,105.03c-13.657,0 -24.728,11.071 -24.728,24.729c-0,13.656 11.071,24.729 24.728,24.729c13.658,-0 24.729,-11.073 24.729,-24.729c-0,-13.658 -11.071,-24.729 -24.729,-24.729" style="fill-rule:nonzero;"/><path d="M126.087,123.727c-3.165,0 -5.73,2.566 -5.73,5.731c-0,3.163 2.565,5.729 5.73,5.729c3.165,-0 5.73,-2.566 5.73,-5.729c0,-3.165 -2.565,-5.731 -5.73,-5.731" style="fill:#fff;fill-rule:nonzero;"/><ellipse cx="126.027" cy="129.397" rx="9.167" ry="9.168" style="fill:none;stroke:#fff;stroke-width:1px;"/><ellipse cx="126.027" cy="129.88" rx="17.852" ry="17.853" style="fill:none;stroke:#fff;stroke-width:1px;"/><path d="M112.774,127.696c0,-6.064 4.823,-10.997 10.84,-11.183l0,-4.7c-8.77,0.105 -15.848,7.243 -15.848,16.039c-0,0.032 0.002,0.064 0.002,0.097l5.012,-0c-0.001,-0.085 -0.006,-0.169 -0.006,-0.253" style="fill:#97e4ff;fill-rule:nonzero;"/><path d="M139.762,131.581c0,6.063 -4.822,10.996 -10.84,11.182l0,4.7c8.77,-0.105 15.849,-7.243 15.849,-16.038c-0,-0.034 -0.003,-0.065 -0.003,-0.098l-5.012,0c0.001,0.085 0.006,0.169 0.006,0.254" style="fill:#f7d7b7;fill-rule:nonzero;"/></svg>